<?xml version="1.0" encoding="UTF-8" standalone="no"?>
<svg
   width="200mm"
   height="200mm"
   viewBox="0 0 200 200"
   version="1.1"
   id="svg1"
   xml:space="preserve"
   xmlns="http://www.w3.org/2000/svg"
   xmlns:svg="http://www.w3.org/2000/svg"><defs
     id="defs1" /><g
     id="layer1"
     style="stroke:#323232;stroke-width:19.9998;stroke-linecap:round;stroke-linejoin:round;stroke-dasharray:none;stroke-opacity:1;paint-order:stroke fill markers"
     transform="matrix(0.90715371,0,0,0.90799014,4.8557824,-47.906487)"><path
       style="fill:#02e247;fill-opacity:1;stroke:#323232;stroke-width:19.9998;stroke-linecap:round;stroke-linejoin:round;stroke-dasharray:none;stroke-opacity:1;paint-order:stroke fill markers"
       d="m 150.0348,261.74126 c -6.11952,-1.93965 -11.80286,-8.26888 -15.14725,-16.86866 -1.50412,-3.86769 -6.99276,-18.00967 -12.19698,-31.42661 -8.37343,-21.58732 -12.47961,-32.02365 -27.1361,-68.96964 -1.98383,-5.00086 -4.03648,-9.09247 -4.56144,-9.09247 -1.93021,0 -8.03848,5.3403 -10.75417,9.4021 -5.40089,8.07797 -7.58571,17.10388 -6.11176,25.24883 0.4801,2.65301 1.11007,5.45114 1.39995,6.21802 0.35797,0.94707 -0.21072,1.7403 -1.77272,2.47266 -1.26488,0.59305 -2.34662,0.96355 -2.40388,0.8233 -3.48221,-8.52837 -9.86448,-16.02827 -16.4826,-19.36897 -3.60514,-1.81981 -5.57911,-2.17567 -12.06836,-2.17567 -6.757202,0 -8.394181,0.32137 -12.686937,2.49063 -13.48982,6.81679 -21.0197921,22.83514 -18.01108,38.31456 0.732421,3.76822 0.647649,4.60395 -0.563581,5.55615 -2.3724831,1.86514 -3.1491161,0.81771 -4.8302271,-6.51437 -1.193164,-5.20394 -1.632688,-10.70522 -1.695253,-21.21851 -0.07634,-12.82929 0.142906,-15.0705 2.281827,-23.32411 C 12.046715,134.96977 21.143982,119.02149 35.006869,104.7259 44.13203,95.315921 57.09742,85.738421 65.64317,82.094961 c 2.60763,-1.11178 4.85831,-2.10505 5.00152,-2.20726 0.14321,-0.1022 -1.07062,-3.58258 -2.69739,-7.73409 l -2.95776,-7.54823 2.11546,-0.99188 c 1.16351,-0.54552 2.41627,-0.80055 2.78392,-0.56673 0.36765,0.23392 1.94261,3.43235 3.49991,7.10782 1.5573,3.67548 3.14076,6.68269 3.51882,6.68269 0.37805,0 5.07759,-1.16398 10.44341,-2.58666 12.70621,-3.36885 25.74966,-4.89311 35.70754,-4.17283 35.73009,2.58456 64.25634,19.73768 79.67277,47.908039 2.74039,5.00749 2.79183,5.27196 1.25115,6.43126 -2.52218,1.89784 -3.27199,1.48264 -5.78242,-3.20181 -4.94,-9.21811 -15.9629,-15.34517 -27.82081,-15.4642 -8.88822,-0.0892 -14.5613,1.91072 -20.18853,7.11708 -7.67516,7.10112 -10.59495,17.12584 -8.754,30.0558 0.77404,5.43658 0.70528,6.34751 -0.55241,7.31832 -2.05826,1.5888 -2.13597,1.53507 -4.98609,-3.44592 -6.80865,-11.89916 -19.49243,-18.03738 -32.61827,-15.78533 -4.79815,0.82325 -5.8224,1.28305 -5.50294,2.47043 1.04043,3.86713 44.70687,114.81184 45.96815,116.79276 2.4134,3.79031 8.06597,6.6382 13.17573,6.6382 2.47099,0 5.5402,-0.56314 6.82046,-1.25141 3.12546,-1.68026 6.7529,-5.72671 7.87611,-8.78587 1.13759,-3.09839 1.18566,-9.85606 0.0977,-13.75914 -0.77401,-2.77719 -0.66749,-3.0052 1.93956,-4.15186 2.65068,-1.16588 2.79915,-1.1201 3.79719,1.17026 0.57127,1.311 1.05235,5.17787 1.06911,8.59307 0.0388,7.90329 -2.45217,13.73283 -8.0248,18.78058 -5.94692,5.38677 -12.5272,6.74811 -20.46164,4.23321 z"
       id="path1" /></g></svg>
